<?xml version="1.0" encoding="UTF-8" standalone="no"?>
<svg width="499.802mm" height="194.908mm" viewBox="0 -199.908 499.802 194.908" xmlns="http://www.w3.org/2000/svg" xmlns:xlink="http://www.w3.org/1999/xlink"  version="1.2" baseProfile="tiny">
<g fill="none" stroke="black" stroke-width="1" fill-rule="evenodd" stroke-linecap="square" stroke-linejoin="bevel" >

<polyline fill="none" points="0,-199.908 0,-199.908 65.8788,-177.023 101.991,-177.023 169.716,-7.88436 169.716,-7.88436 187.945,-7.88436 187.945,-177.023 187.945,-177.023 255.555,-177.023 256.881,-177.021 258.186,-177.016 259.467,-177.006 260.725,-176.993 261.961,-176.975 263.174,-176.954 264.364,-176.929 265.531,-176.9 266.675,-176.868 267.797,-176.831 268.896,-176.791 269.972,-176.747 271.025,-176.698 272.055,-176.647 273.063,-176.591 274.047,-176.531 275.009,-176.468 275.948,-176.4 276.864,-176.329 277.758,-176.254 278.628,-176.175 279.476,-176.093 280.301,-176.006 281.103,-175.916 281.882,-175.822 282.639,-175.724 283.372,-175.622 284.083,-175.516 284.771,-175.406 285.437,-175.293 286.596,-175.09 287.741,-174.862 288.87,-174.608 289.984,-174.328 291.084,-174.023 292.167,-173.693 293.236,-173.337 294.29,-172.955 295.328,-172.548 296.351,-172.115 297.359,-171.657 298.352,-171.173 299.33,-170.663 300.292,-170.128 301.24,-169.568 302.172,-168.982 303.089,-168.37 304.28,-167.533 305.44,-166.653 306.569,-165.73 307.666,-164.766 308.731,-163.759 309.766,-162.709 310.768,-161.618 311.74,-160.484 312.68,-159.308 313.589,-158.089 314.466,-156.828 315.312,-155.525 316.126,-154.179 316.658,-153.25 317.162,-152.309 317.636,-151.356 318.082,-150.39 318.499,-149.412 318.887,-148.423 319.247,-147.421 319.578,-146.407 319.88,-145.38 320.153,-144.342 320.398,-143.292 320.613,-142.229 320.8,-141.154 320.958,-140.067 321.088,-138.968 321.189,-137.857 321.26,-136.733 321.304,-135.598 321.318,-134.45 321.303,-133.323 321.259,-132.204 321.186,-131.095 321.084,-129.994 320.952,-128.903 320.791,-127.82 320.6,-126.746 320.38,-125.681 320.131,-124.625 319.853,-123.577 319.545,-122.539 319.208,-121.509 318.842,-120.489 318.446,-119.477 318.022,-118.474 317.567,-117.48 317.084,-116.495 316.571,-115.519 316.029,-114.552 315.458,-113.594 314.857,-112.644 314.095,-111.494 313.3,-110.378 312.474,-109.297 311.615,-108.25 310.725,-107.237 309.803,-106.259 308.849,-105.314 307.863,-104.405 306.845,-103.529 305.795,-102.688 304.713,-101.881 303.599,-101.109 302.453,-100.37 301.276,-99.6666 300.066,-98.9971 298.824,-98.3619 297.551,-97.7611 298.882,-97.3578 300.186,-96.9306 301.462,-96.4793 302.712,-96.0041 303.935,-95.5049 305.13,-94.9817 306.299,-94.4344 307.44,-93.8632 308.555,-93.268 309.642,-92.6489 310.703,-92.0057 311.736,-91.3385 312.742,-90.6474 313.722,-89.9322 314.674,-89.1931 315.599,-88.43 316.497,-87.6428 317.368,-86.8317 318.212,-85.9966 319.029,-85.1375 319.819,-84.2544 320.582,-83.3474 321.318,-82.4163 321.969,-81.5426 322.594,-80.6567 323.192,-79.7586 323.764,-78.8484 324.309,-77.9259 324.827,-76.9913 325.319,-76.0445 325.784,-75.0855 326.222,-74.1143 326.634,-73.131 327.02,-72.1354 327.379,-71.1277 327.711,-70.1078 328.017,-69.0757 328.296,-68.0314 328.548,-66.9749 328.774,-65.9063 328.974,-64.8255 354.185,-69.8317 354,-70.9352 353.825,-72.047 353.661,-73.167 353.507,-74.2952 353.364,-75.4317 353.232,-76.5764 353.11,-77.7293 352.999,-78.8904 352.898,-80.0597 352.808,-81.2373 352.729,-82.4231 352.66,-83.6171 352.602,-84.8194 352.554,-86.0299 352.517,-87.2486 352.49,-88.4755 352.474,-89.7106 352.469,-90.954 352.474,-92.2103 352.489,-93.4582 352.513,-94.6976 352.547,-95.9286 352.591,-97.1512 352.644,-98.3653 352.707,-99.571 352.78,-100.768 352.863,-101.957 352.955,-103.138 353.057,-104.31 353.169,-105.473 353.29,-106.628 353.421,-107.775 353.562,-108.913 353.713,-110.043 353.873,-111.165 354.043,-112.278 354.223,-113.382 354.412,-114.478 354.611,-115.566 354.82,-116.645 355.039,-117.716 355.267,-118.778 355.505,-119.832 355.753,-120.878 356.01,-121.915 356.277,-122.944 356.554,-123.964 356.841,-124.976 357.137,-125.979 357.443,-126.974 357.759,-127.961 358.085,-128.939 358.42,-129.908 358.765,-130.87 359.119,-131.822 359.484,-132.767 359.858,-133.703 360.241,-134.63 360.635,-135.549 361.038,-136.46 361.451,-137.362 361.873,-138.256 362.306,-139.141 362.748,-140.018 363.2,-140.887 363.661,-141.747 364.132,-142.599 364.613,-143.442 365.104,-144.277 365.604,-145.103 366.114,-145.921 366.634,-146.73 367.163,-147.531 367.703,-148.324 368.251,-149.108 368.81,-149.884 369.378,-150.651 369.957,-151.41 370.544,-152.161 371.142,-152.903 371.749,-153.637 372.366,-154.362 372.993,-155.078 373.629,-155.787 374.275,-156.487 375.018,-157.274 375.769,-158.048 376.528,-158.808 377.295,-159.555 378.069,-160.288 378.852,-161.008 379.642,-161.715 380.441,-162.408 381.247,-163.087 382.061,-163.753 382.883,-164.406 383.713,-165.045 384.551,-165.671 385.396,-166.283 386.25,-166.882 387.111,-167.467 387.981,-168.039 388.858,-168.598 389.743,-169.143 390.636,-169.674 391.537,-170.192 392.446,-170.697 393.362,-171.188 394.287,-171.666 395.219,-172.13 396.16,-172.581 397.108,-173.018 398.064,-173.442 399.028,-173.852 400,-174.249 400.98,-174.633 401.967,-175.003 402.963,-175.359 403.966,-175.703 404.978,-176.032 405.997,-176.349 407.024,-176.651 408.059,-176.941 409.102,-177.216 410.153,-177.479 411.211,-177.728 412.278,-177.963 413.352,-178.185 414.435,-178.394 415.525,-178.589 416.623,-178.771 417.729,-178.939 418.843,-179.094 419.965,-179.235 421.094,-179.363 422.232,-179.477 423.377,-179.578 424.531,-179.666 425.692,-179.74 426.861,-179.8 428.038,-179.847 429.223,-179.881 430.415,-179.901 431.616,-179.908 432.829,-179.901 434.032,-179.88 435.227,-179.844 436.413,-179.795 437.589,-179.731 438.757,-179.654 439.916,-179.562 441.066,-179.456 442.207,-179.336 443.339,-179.202 444.462,-179.054 445.576,-178.892 446.681,-178.716 447.777,-178.525 448.864,-178.321 449.943,-178.102 451.012,-177.869 452.072,-177.623 453.123,-177.362 454.166,-177.087 455.199,-176.797 456.224,-176.494 457.239,-176.177 458.246,-175.845 459.243,-175.5 460.232,-175.14 461.211,-174.766 462.182,-174.378 463.144,-173.976 464.097,-173.56 465.04,-173.13 465.975,-172.686 466.901,-172.227 467.818,-171.755 468.726,-171.268 469.625,-170.767 470.515,-170.252 471.396,-169.723 472.268,-169.18 473.131,-168.623 473.986,-168.052 474.831,-167.466 475.667,-166.867 476.494,-166.253 477.313,-165.626 478.122,-164.984 478.923,-164.328 479.714,-163.658 480.497,-162.974 481.27,-162.276 482.035,-161.563 482.773,-160.854 483.499,-160.124 484.214,-159.376 484.916,-158.607 485.606,-157.819 486.285,-157.011 486.951,-156.183 487.605,-155.336 488.248,-154.469 488.878,-153.582 489.496,-152.675 490.103,-151.749 490.697,-150.803 491.279,-149.838 491.849,-148.853 492.408,-147.848 492.954,-146.823 493.488,-145.779 494.01,-144.715 494.521,-143.632 495.019,-142.528 495.505,-141.405 495.979,-140.263 496.442,-139.1 496.892,-137.918 497.33,-136.716 497.756,-135.495 498.17,-134.254 498.573,-132.993 498.963,-131.712 499.341,-130.412 465.536,-122.336 465.22,-123.637 464.87,-124.911 464.488,-126.157 464.073,-127.375 463.625,-128.566 463.144,-129.729 462.631,-130.864 462.084,-131.972 461.505,-133.052 460.892,-134.104 460.247,-135.129 459.569,-136.125 458.858,-137.095 458.114,-138.036 457.337,-138.95 456.528,-139.836 455.685,-140.694 454.81,-141.525 453.901,-142.328 452.96,-143.103 452.13,-143.751 451.284,-144.37 450.422,-144.96 449.544,-145.522 448.651,-146.054 447.742,-146.558 446.817,-147.033 445.876,-147.479 444.92,-147.897 443.948,-148.285 442.961,-148.645 441.958,-148.976 440.939,-149.279 439.904,-149.552 438.854,-149.797 437.788,-150.013 436.706,-150.2 435.608,-150.358 434.495,-150.488 433.366,-150.588 432.222,-150.66 431.061,-150.704 429.885,-150.718 428.679,-150.704 427.488,-150.662 426.311,-150.592 425.149,-150.493 424.002,-150.367 422.869,-150.212 421.751,-150.03 420.648,-149.819 419.559,-149.58 418.485,-149.313 417.425,-149.018 416.38,-148.695 415.35,-148.344 414.335,-147.965 413.334,-147.558 412.348,-147.122 411.376,-146.659 410.419,-146.167 409.477,-145.647 408.549,-145.099 407.636,-144.523 406.738,-143.919 405.854,-143.287 404.985,-142.627 404.13,-141.939 403.29,-141.222 402.465,-140.478 401.655,-139.705 400.859,-138.905 400.078,-138.076 399.311,-137.219 398.788,-136.597 398.276,-135.957 397.776,-135.301 397.289,-134.627 396.813,-133.935 396.35,-133.227 395.898,-132.501 395.459,-131.757 395.032,-130.997 394.616,-130.219 394.213,-129.424 393.822,-128.612 393.443,-127.782 393.075,-126.935 392.72,-126.071 392.377,-125.19 392.046,-124.291 391.727,-123.375 391.42,-122.442 391.125,-121.491 390.842,-120.523 390.572,-119.538 390.313,-118.536 390.066,-117.516 389.831,-116.479 389.609,-115.425 389.398,-114.353 389.199,-113.264 389.013,-112.158 388.838,-111.035 388.676,-109.894 388.525,-108.736 388.387,-107.561 388.26,-106.368 388.146,-105.158 388.044,-103.931 387.953,-102.687 387.875,-101.425 387.809,-100.146 387.755,-98.85 387.713,-97.5365 387.682,-96.2057 387.664,-94.8576 387.658,-93.4923 387.664,-92.1064 387.68,-90.7381 387.707,-89.3872 387.746,-88.0537 387.795,-86.7377 387.855,-85.4392 387.926,-84.158 388.007,-82.8944 388.1,-81.6482 388.204,-80.4194 388.318,-79.2081 388.444,-78.0142 388.58,-76.8378 388.727,-75.6788 388.885,-74.5372 389.054,-73.4132 389.234,-72.3065 389.425,-71.2173 389.627,-70.1456 389.839,-69.0913 390.063,-68.0545 390.297,-67.0351 390.543,-66.0331 390.799,-65.0486 391.066,-64.0816 391.344,-63.132 391.633,-62.1998 391.933,-61.2851 392.244,-60.3878 392.566,-59.508 392.898,-58.6457 393.242,-57.8007 393.596,-56.9733 393.961,-56.1633 394.338,-55.3707 394.725,-54.5956 395.123,-53.8379 395.532,-53.0976 395.952,-52.3749 396.382,-51.6695 396.824,-50.9816 397.277,-50.3112 397.74,-49.6582 398.214,-49.0227 398.7,-48.4046 399.196,-47.8039 399.973,-46.9115 400.765,-46.0492 401.573,-45.2172 402.396,-44.4155 403.234,-43.644 404.088,-42.9028 404.957,-42.1919 405.841,-41.5112 406.741,-40.8607 407.657,-40.2405 408.587,-39.6506 409.533,-39.0909 410.495,-38.5614 411.472,-38.0622 412.464,-37.5933 413.471,-37.1546 414.494,-36.7462 415.533,-36.368 416.587,-36.0201 417.656,-35.7024 418.74,-35.415 419.84,-35.1579 420.955,-34.931 422.086,-34.7343 423.232,-34.5679 424.394,-34.4318 425.57,-34.3259 426.763,-34.2503 427.97,-34.2049 429.193,-34.1898 430.37,-34.2061 431.532,-34.2552 432.68,-34.337 433.813,-34.4515 434.932,-34.5987 436.037,-34.7786 437.127,-34.9913 438.203,-35.2366 439.265,-35.5147 440.312,-35.8255 441.345,-36.169 442.363,-36.5452 443.367,-36.9542 444.356,-37.3958 445.331,-37.8702 446.292,-38.3773 447.238,-38.9171 448.17,-39.4896 449.088,-40.0948 449.991,-40.7327 450.88,-41.4034 451.754,-42.1068 452.614,-42.8428 453.333,-43.4974 454.037,-44.1792 454.725,-44.8882 455.398,-45.6245 456.056,-46.388 456.699,-47.1786 457.327,-47.9966 457.939,-48.8417 458.537,-49.714 459.119,-50.6136 459.686,-51.5404 460.237,-52.4944 460.774,-53.4757 461.295,-54.4841 461.801,-55.5198 462.292,-56.5827 462.768,-57.6728 463.229,-58.7902 463.674,-59.9347 464.104,-61.1065 464.519,-62.3055 464.919,-63.5318 465.304,-64.7852 465.673,-66.0659 466.027,-67.3738 466.366,-68.7089 466.69,-70.0712 466.69,-70.0712 499.802,-59.5721 499.434,-58.2616 499.054,-56.9672 498.663,-55.6889 498.26,-54.4266 497.845,-53.1804 497.42,-51.9504 496.982,-50.7364 496.533,-49.5385 496.073,-48.3567 495.601,-47.191 495.117,-46.0413 494.622,-44.9078 494.116,-43.7904 493.598,-42.689 493.068,-41.6037 492.527,-40.5346 491.975,-39.4815 491.411,-38.4445 490.835,-37.4236 490.248,-36.4188 489.649,-35.43 489.039,-34.4574 488.418,-33.5008 487.785,-32.5604 487.14,-31.636 486.484,-30.7277 485.816,-29.8355 485.137,-28.9594 484.446,-28.0994 483.744,-27.2555 483.03,-26.4277 482.305,-25.6159 481.568,-24.8203 480.82,-24.0407 480.061,-23.2772 479.289,-22.5299 478.506,-21.7986 477.712,-21.0834 476.906,-20.3842 476.089,-19.7012 475.26,-19.0343 474.42,-18.3834 473.631,-17.7952 472.832,-17.2202 472.024,-16.6585 471.206,-16.1099 470.379,-15.5746 469.542,-15.0525 468.696,-14.5435 467.841,-14.0479 466.976,-13.5654 466.102,-13.0962 465.218,-12.6401 464.324,-12.1973 463.422,-11.7677 462.509,-11.3514 461.588,-10.9482 460.657,-10.5583 459.716,-10.1815 458.766,-9.81804 457.806,-9.46776 456.837,-9.13069 455.859,-8.80685 454.871,-8.49622 453.874,-8.19881 452.867,-7.91462 451.851,-7.64364 450.825,-7.38589 449.79,-7.14135 448.745,-6.91003 447.691,-6.69193 446.628,-6.48705 445.555,-6.29538 444.472,-6.11694 443.38,-5.95171 442.279,-5.7997 441.168,-5.66091 440.048,-5.53534 438.918,-5.42298 437.779,-5.32385 436.63,-5.23793 435.472,-5.16523 434.304,-5.10575 433.127,-5.05948 431.941,-5.02644 430.745,-5.00661 429.539,-5 428.34,-5.00732 427.148,-5.02929 425.964,-5.06589 424.788,-5.11714 423.619,-5.18303 422.458,-5.26357 421.304,-5.35874 420.159,-5.46856 419.021,-5.59302 417.89,-5.73213 416.767,-5.88587 415.652,-6.05426 414.544,-6.2373 413.445,-6.43497 412.352,-6.64729 411.268,-6.87425 410.191,-7.11585 409.122,-7.37209 408.06,-7.64298 407.006,-7.92851 405.96,-8.22868 404.921,-8.5435 403.89,-8.87296 402.867,-9.21706 401.851,-9.5758 400.843,-9.94918 399.842,-10.3372 398.85,-10.7399 397.865,-11.1572 396.887,-11.5892 395.917,-12.0357 394.955,-12.497 394.001,-12.9729 393.054,-13.4634 392.115,-13.9686 391.183,-14.4884 390.259,-15.0228 389.343,-15.5719 388.434,-16.1357 387.534,-16.714 386.64,-17.3071 385.755,-17.9147 384.877,-18.537 384.006,-19.174 383.144,-19.8256 382.289,-20.4918 381.441,-21.1727 380.602,-21.8682 379.77,-22.5784 378.945,-23.3032 378.128,-24.0426 377.319,-24.7967 376.518,-25.5655 375.724,-26.3488 374.938,-27.1469 374.16,-27.9595 373.487,-28.6847 372.825,-29.4182 372.174,-30.1598 371.533,-30.9097 370.903,-31.6678 370.283,-32.4341 369.674,-33.2087 369.076,-33.9915 368.488,-34.7825 367.911,-35.5817 367.344,-36.3891 366.788,-37.2048 366.243,-38.0287 365.708,-38.8608 365.184,-39.7012 364.67,-40.5498 364.167,-41.4066 363.674,-42.2716 363.193,-43.1449 362.721,-44.0263 362.261,-44.916 361.81,-45.814 361.371,-46.7201 360.942,-47.6345 360.524,-48.5571 360.116,-49.4879 359.719,-50.427 359.332,-51.3742 358.956,-52.3297 358.591,-53.2935 358.236,-54.2654 357.892,-55.2456 357.558,-56.234 357.235,-57.2306 356.923,-58.2355 356.621,-59.2486 356.33,-60.2699 356.049,-61.2994 355.779,-62.3371 355.519,-63.3831 355.27,-64.4373 355.032,-65.4997 354.804,-66.5704 354.587,-67.6493 354.381,-68.7364 354.185,-69.8317 328.974,-64.8255 329.146,-63.7325 329.293,-62.6273 329.412,-61.5099 329.505,-60.3803 329.572,-59.2386 329.612,-58.0846 329.625,-56.9185 329.614,-55.8709 329.58,-54.8256 329.524,-53.7827 329.446,-52.7422 329.345,-51.704 329.222,-50.6683 329.076,-49.6349 328.908,-48.6039 328.717,-47.5753 328.505,-46.5491 328.269,-45.5253 328.012,-44.5039 327.732,-43.4848 327.429,-42.4681 327.104,-41.4538 326.757,-40.4419 326.387,-39.4324 325.995,-38.4252 325.58,-37.4205 325.143,-36.4181 324.684,-35.4181 324.202,-34.4205 323.564,-33.1594 322.898,-31.9278 322.203,-30.7257 321.481,-29.5532 320.731,-28.4102 319.953,-27.2968 319.147,-26.2129 318.313,-25.1586 317.451,-24.1338 316.561,-23.1386 315.644,-22.1728 314.698,-21.2367 313.724,-20.33 312.722,-19.453 311.693,-18.6054 310.635,-17.7874 309.55,-16.9989 308.702,-16.4218 307.835,-15.8652 306.951,-15.3291 306.049,-14.8135 305.128,-14.3184 304.189,-13.8438 303.232,-13.3897 302.257,-12.9561 301.264,-12.543 300.253,-12.1504 299.224,-11.7783 298.176,-11.4266 297.111,-11.0955 296.027,-10.7849 294.925,-10.4948 293.805,-10.2252 292.667,-9.97612 291.511,-9.74752 290.337,-9.53942 289.145,-9.35181 287.934,-9.18471 286.706,-9.03811 286.285,-8.99455 285.838,-8.95177 285.363,-8.90978 284.861,-8.86858 284.331,-8.82816 283.774,-8.78852 283.19,-8.74967 282.578,-8.71161 281.939,-8.67433 281.273,-8.63783 280.579,-8.60212 279.859,-8.56719 279.11,-8.53305 278.335,-8.49969 277.532,-8.46712 276.701,-8.43533 275.844,-8.40433 274.959,-8.37412 274.046,-8.34468 273.107,-8.31604 272.14,-8.28817 271.145,-8.26109 270.124,-8.2348 269.075,-8.20929 267.998,-8.18457 266.894,-8.16063 265.763,-8.13748 264.605,-8.11511 263.419,-8.09353 262.206,-8.07273 260.966,-8.05271 259.698,-8.03348 258.403,-8.01504 257.081,-7.99738 255.731,-7.98051 254.354,-7.96442 252.949,-7.94911 251.517,-7.93459 250.058,-7.92086 248.572,-7.90791 247.058,-7.89574 245.517,-7.88436 221.139,-7.88436 222.096,-36.3819 222.096,-81.6087 222.096,-81.6087 222.096,-109.76 222.096,-148.872 222.096,-148.872 241.71,-148.872 243.35,-148.871 244.945,-148.869 246.495,-148.866 247.999,-148.861 249.459,-148.855 250.873,-148.847 252.241,-148.838 253.565,-148.828 254.843,-148.816 256.076,-148.803 257.263,-148.789 258.406,-148.773 259.503,-148.756 260.555,-148.738 261.561,-148.718 262.523,-148.696 263.439,-148.674 264.309,-148.65 265.135,-148.624 265.915,-148.598 266.65,-148.57 267.339,-148.54 267.984,-148.509 268.583,-148.477 269.137,-148.443 269.645,-148.408 270.109,-148.372 270.527,-148.334 270.899,-148.295 272.293,-148.095 273.627,-147.84 274.901,-147.531 276.117,-147.167 277.273,-146.749 278.37,-146.276 279.407,-145.749 280.386,-145.167 281.305,-144.531 282.164,-143.84 282.965,-143.095 283.706,-142.296 284.406,-141.467 285.046,-140.597 285.624,-139.685 286.142,-138.732 286.598,-137.737 286.994,-136.7 287.329,-135.622 287.603,-134.501 287.816,-133.34 287.968,-132.136 288.06,-130.891 288.09,-129.604 288.055,-128.261 287.949,-126.96 287.773,-125.703 287.526,-124.49 287.209,-123.319 286.821,-122.192 286.363,-121.108 285.834,-120.067 285.235,-119.069 284.565,-118.115 283.825,-117.204 283.014,-116.336 282.228,-115.596 281.397,-114.903 280.521,-114.256 279.6,-113.655 278.634,-113.1 277.623,-112.593 276.567,-112.131 275.466,-111.716 274.32,-111.347 273.128,-111.025 271.892,-110.749 270.611,-110.52 269.284,-110.337 268.854,-110.29 268.372,-110.245 267.837,-110.202 267.249,-110.161 266.609,-110.122 265.917,-110.085 265.172,-110.049 264.374,-110.016 263.524,-109.985 262.622,-109.956 261.667,-109.929 260.66,-109.904 259.6,-109.881 258.488,-109.86 257.323,-109.841 256.106,-109.824 254.836,-109.809 253.514,-109.796 252.139,-109.785 250.712,-109.776 249.232,-109.769 247.7,-109.764 246.116,-109.761 244.479,-109.76 222.096,-109.76 222.096,-81.6087 249.67,-81.6087 251.206,-81.606 252.705,-81.5979 254.168,-81.5844 255.594,-81.5656 256.984,-81.5414 258.337,-81.5118 259.654,-81.4768 260.935,-81.4364 262.179,-81.3906 263.387,-81.3395 264.559,-81.2829 265.694,-81.221 266.792,-81.1537 267.854,-81.081 268.88,-81.003 269.87,-80.9195 270.823,-80.8307 271.739,-80.7364 272.619,-80.6368 273.463,-80.5318 274.271,-80.4215 275.042,-80.3057 275.776,-80.1846 276.474,-80.058 277.136,-79.9261 277.761,-79.7888 278.35,-79.6462 278.903,-79.4981 279.419,-79.3446 279.899,-79.1858 281.273,-78.6724 282.58,-78.1013 283.82,-77.4725 284.994,-76.786 286.1,-76.0419 287.139,-75.24 288.112,-74.3805 289.018,-73.4632 289.857,-72.4883 290.628,-71.4557 291.218,-70.5552 291.757,-69.6225 292.244,-68.6579 292.679,-67.6612 293.064,-66.6324 293.397,-65.5716 293.679,-64.4788 293.91,-63.3539 294.09,-62.1969 294.218,-61.0079 294.295,-59.7869 294.32,-58.5338 294.296,-57.2664 294.221,-56.0356 294.098,-54.8412 293.925,-53.6833 293.702,-52.562 293.43,-51.4771 293.109,-50.4287 292.738,-49.4168 292.318,-48.4414 291.848,-47.5026 291.329,-46.6002 290.76,-45.7343 290.142,-44.9049 289.475,-44.112 288.591,-43.1794 287.659,-42.3117 286.68,-41.5089 285.653,-40.7709 284.578,-40.0977 283.456,-39.4894 282.286,-38.9459 281.069,-38.4672 279.803,-38.0534 278.49,-37.7044 277.13,-37.4202 276.673,-37.3319 276.165,-37.2475 275.606,-37.167 274.996,-37.0905 274.335,-37.0178 273.623,-36.9491 272.859,-36.8844 272.045,-36.8235 271.18,-36.7666 270.264,-36.7136 269.297,-36.6645 268.278,-36.6194 267.209,-36.5782 266.089,-36.5409 264.917,-36.5075 263.695,-36.4781 262.421,-36.4525 261.097,-36.4309 259.721,-36.4133 258.295,-36.3995 256.817,-36.3897 255.288,-36.3838 253.709,-36.3819 222.096,-36.3819 221.139,-7.88436 187.945,-7.88436 169.716,-7.88436 132.565,-7.88436 117.797,-46.3041 50.1879,-46.3041 60.687,-74.8016 83.5311,-137.565 106.837,-74.8016 106.837,-74.8016 60.687,-74.8016 50.1879,-46.3041 36.2276,-7.88436 0,-7.88436 65.8788,-177.023 0,-199.908 " />
</g>
</svg>
