<?xml version="1.0" encoding="UTF-8" standalone="no"?>
<svg width="571.505mm" height="220mm" viewBox="0 -20 571.505 220" xmlns="http://www.w3.org/2000/svg" xmlns:xlink="http://www.w3.org/1999/xlink"  version="1.2" baseProfile="tiny">
<g fill="none" stroke="black" stroke-width="1" fill-rule="evenodd" stroke-linecap="square" stroke-linejoin="bevel" >

<polyline fill="none" points="0,-20 75.3299,3.29816 0,196.702 41.4248,196.702 57.3879,152.771 69.3932,120.185 122.164,120.185 122.164,120.185 95.5146,48.4169 69.3932,120.185 57.3879,152.771 134.697,152.771 151.583,196.702 194.064,196.702 214.908,196.702 280.739,196.702 282.283,196.691 283.803,196.679 285.298,196.666 286.77,196.653 288.218,196.639 289.642,196.624 291.042,196.608 292.418,196.592 293.77,196.575 295.099,196.558 296.403,196.54 297.683,196.521 298.94,196.501 300.172,196.481 301.381,196.46 302.566,196.438 303.726,196.416 304.863,196.393 305.976,196.369 307.065,196.345 308.13,196.32 309.171,196.294 310.188,196.267 311.181,196.24 312.15,196.212 313.096,196.184 314.017,196.155 314.914,196.125 315.788,196.094 316.637,196.063 317.463,196.031 318.265,195.998 319.043,195.965 319.796,195.931 320.526,195.896 321.232,195.861 321.914,195.825 322.572,195.788 323.206,195.751 323.817,195.713 324.403,195.674 324.965,195.634 325.504,195.594 326.018,195.553 326.509,195.512 326.975,195.469 327.418,195.426 327.837,195.383 329.027,195.242 330.202,195.085 331.362,194.912 332.508,194.721 333.639,194.513 334.755,194.289 335.856,194.048 336.942,193.79 338.013,193.516 339.07,193.224 340.112,192.916 341.139,192.591 342.151,192.25 343.148,191.891 344.13,191.516 345.098,191.124 346.051,190.715 346.989,190.289 347.912,189.847 348.82,189.388 349.714,188.912 350.592,188.419 351.456,187.909 352.305,187.383 353.139,186.84 353.958,186.28 355.07,185.475 356.157,184.643 357.218,183.784 358.253,182.897 359.263,181.984 360.247,181.044 361.205,180.076 362.138,179.082 363.046,178.061 363.928,177.012 364.784,175.937 365.614,174.834 366.42,173.705 367.199,172.548 367.953,171.364 368.681,170.153 369.384,168.916 370.061,167.651 370.713,166.359 371.199,165.355 371.665,164.35 372.112,163.342 372.538,162.332 372.945,161.319 373.332,160.305 373.699,159.289 374.046,158.27 374.374,157.25 374.681,156.227 374.969,155.202 375.237,154.175 375.485,153.146 375.713,152.115 375.921,151.082 376.11,150.047 376.278,149.009 376.427,147.97 376.556,146.928 376.665,145.884 376.755,144.838 376.824,143.79 376.874,142.74 376.903,141.688 376.913,140.633 376.902,139.483 376.868,138.343 376.812,137.214 376.733,136.094 376.631,134.985 376.507,133.887 376.36,132.799 376.191,131.721 405.032,126.071 405.227,127.154 405.431,128.229 405.644,129.298 405.866,130.359 406.097,131.413 406.337,132.461 406.586,133.501 406.844,134.534 407.111,135.56 407.387,136.579 407.673,137.591 407.967,138.596 408.271,139.594 408.583,140.585 408.905,141.569 409.235,142.546 409.575,143.516 409.924,144.479 410.282,145.435 410.648,146.384 411.024,147.325 411.409,148.26 411.803,149.188 412.206,150.108 412.619,151.022 413.04,151.929 413.47,152.828 413.909,153.721 414.358,154.606 414.815,155.485 415.282,156.356 415.757,157.22 416.242,158.078 416.736,158.928 417.238,159.771 417.75,160.607 418.271,161.437 418.801,162.259 419.34,163.074 419.888,163.882 420.445,164.683 421.011,165.477 421.587,166.264 422.171,167.044 422.764,167.817 423.367,168.583 423.978,169.342 424.598,170.093 425.228,170.838 425.867,171.576 426.514,172.307 427.171,173.03 427.837,173.747 428.603,174.548 429.376,175.338 430.156,176.114 430.941,176.879 431.734,177.631 432.533,178.37 433.338,179.097 434.15,179.812 434.968,180.514 435.793,181.203 436.624,181.881 437.462,182.546 438.307,183.198 439.157,183.838 440.015,184.466 440.879,185.081 441.749,185.684 442.626,186.274 443.509,186.852 444.399,187.417 445.295,187.97 446.198,188.511 447.107,189.039 448.023,189.555 448.945,190.058 449.874,190.549 450.809,191.027 451.751,191.494 452.699,191.947 453.654,192.388 454.615,192.817 455.583,193.233 456.557,193.637 457.538,194.029 458.525,194.408 459.519,194.774 460.519,195.129 461.526,195.47 462.539,195.8 463.558,196.117 464.585,196.421 465.617,196.713 466.657,196.993 467.702,197.26 468.754,197.515 469.813,197.757 470.878,197.987 471.95,198.204 473.028,198.409 474.113,198.602 475.204,198.782 476.301,198.95 477.405,199.105 478.516,199.248 479.633,199.379 480.757,199.497 481.887,199.603 483.023,199.696 484.167,199.777 485.316,199.845 486.472,199.901 487.635,199.944 488.804,199.975 489.979,199.994 491.162,200 492.355,199.995 493.54,199.978 494.718,199.949 495.887,199.91 497.048,199.859 498.201,199.796 499.345,199.723 500.482,199.638 501.611,199.542 502.731,199.434 503.844,199.315 504.948,199.185 506.044,199.044 507.133,198.891 508.213,198.727 509.285,198.551 510.348,198.365 511.404,198.167 512.452,197.957 513.491,197.736 514.523,197.504 515.546,197.261 516.561,197.006 517.569,196.74 518.568,196.463 519.559,196.174 520.542,195.874 521.516,195.563 522.483,195.241 523.441,194.907 524.392,194.561 525.334,194.205 526.269,193.837 527.195,193.458 528.113,193.067 529.023,192.665 529.925,192.252 530.818,191.828 531.704,191.392 532.582,190.945 533.451,190.487 534.313,190.017 535.166,189.536 536.011,189.043 536.848,188.54 537.677,188.025 538.498,187.498 539.311,186.961 540.115,186.412 540.912,185.851 541.7,185.28 542.481,184.697 543.322,184.047 544.154,183.382 544.975,182.704 545.786,182.012 546.587,181.305 547.379,180.584 548.16,179.85 548.931,179.101 549.691,178.338 550.442,177.561 551.183,176.77 551.914,175.965 552.634,175.146 553.345,174.312 554.045,173.465 554.735,172.604 555.416,171.728 556.086,170.838 556.746,169.935 557.396,169.017 558.036,168.085 558.666,167.139 559.285,166.179 559.895,165.205 560.495,164.216 561.084,163.214 561.664,162.198 562.233,161.167 562.792,160.123 563.342,159.064 563.881,157.991 564.41,156.904 564.929,155.803 565.438,154.688 565.937,153.559 566.425,152.416 566.904,151.259 567.373,150.087 567.831,148.902 568.28,147.702 568.718,146.489 569.146,145.261 569.565,144.019 569.973,142.763 570.371,141.493 570.759,140.209 571.137,138.911 571.505,137.599 533.642,125.594 533.642,125.594 533.32,126.952 532.986,128.287 532.638,129.599 532.277,130.886 531.902,132.15 531.515,133.391 531.114,134.608 530.701,135.801 530.274,136.97 529.834,138.117 529.38,139.239 528.914,140.338 528.434,141.413 527.941,142.464 527.435,143.492 526.916,144.497 526.384,145.477 525.838,146.435 525.279,147.368 524.708,148.278 524.122,149.164 523.524,150.027 522.913,150.866 522.288,151.681 521.65,152.473 520.999,153.241 520.335,153.986 519.658,154.707 518.967,155.404 518.264,156.078 517.547,156.728 516.71,157.448 515.862,158.14 515.001,158.805 514.129,159.443 513.244,160.054 512.348,160.637 511.44,161.194 510.519,161.723 509.587,162.225 508.643,162.7 507.687,163.148 506.719,163.569 505.739,163.963 504.747,164.329 503.743,164.668 502.728,164.981 501.7,165.266 500.66,165.523 499.609,165.754 498.545,165.958 497.47,166.134 496.382,166.284 495.283,166.406 494.171,166.501 493.048,166.569 491.913,166.609 490.766,166.623 489.531,166.609 488.31,166.569 487.102,166.502 485.909,166.407 484.729,166.286 483.562,166.138 482.41,165.963 481.271,165.761 480.145,165.532 479.034,165.276 477.936,164.993 476.852,164.684 475.781,164.347 474.725,163.983 473.682,163.593 472.652,163.175 471.636,162.731 470.634,162.26 469.646,161.761 468.672,161.236 467.711,160.684 466.763,160.105 465.83,159.499 464.91,158.866 464.004,158.206 463.111,157.52 462.233,156.806 461.368,156.065 460.516,155.298 459.679,154.503 458.855,153.682 458.044,152.833 457.248,151.958 456.465,151.056 455.972,150.461 455.488,149.851 455.014,149.226 454.549,148.586 454.093,147.93 453.647,147.26 453.21,146.575 452.783,145.875 452.365,145.16 451.956,144.43 451.557,143.684 451.167,142.924 450.787,142.149 450.416,141.359 450.054,140.553 449.702,139.733 449.359,138.897 449.026,138.047 448.701,137.181 448.387,136.301 448.082,135.405 447.786,134.495 447.499,133.569 447.222,132.629 446.954,131.673 446.696,130.702 446.447,129.716 446.208,128.716 445.977,127.7 445.757,126.669 445.545,125.623 445.343,124.562 445.151,123.487 444.968,122.396 444.794,121.29 444.63,120.169 444.475,119.033 444.329,117.882 444.193,116.716 444.066,115.535 443.949,114.338 443.841,113.127 443.742,111.901 443.653,110.66 443.573,109.404 443.502,108.132 443.441,106.846 443.39,105.545 443.347,104.228 443.315,102.897 443.291,101.551 443.277,100.189 443.272,98.8128 443.277,97.4647 443.293,96.1312 443.318,94.8125 443.354,93.5085 443.4,92.2193 443.457,90.9447 443.523,89.6848 443.6,88.4396 443.687,87.2092 443.785,85.9935 443.892,84.7924 444.01,83.6061 444.138,82.4345 444.276,81.2776 444.425,80.1354 444.584,79.0079 444.753,77.8951 444.932,76.7971 445.122,75.7137 445.321,74.6451 445.531,73.5911 445.752,72.5519 445.982,71.5274 446.223,70.5176 446.474,69.5225 446.735,68.5421 447.007,67.5764 447.289,66.6254 447.581,65.6891 447.883,64.7676 448.195,63.8607 448.518,62.9686 448.851,62.0912 449.194,61.2284 449.548,60.3804 449.911,59.5471 450.285,58.7285 450.67,57.9247 451.064,57.1355 451.469,56.361 451.884,55.6013 452.309,54.8562 452.744,54.1259 453.19,53.4103 453.646,52.7093 454.112,52.0231 454.589,51.3516 455.075,50.6948 455.572,50.0528 456.079,49.4254 456.597,48.8127 457.372,47.9433 458.161,47.0991 458.963,46.2801 459.778,45.4862 460.606,44.7176 461.447,43.9742 462.301,43.256 463.169,42.563 464.049,41.8952 464.943,41.2525 465.85,40.6351 466.77,40.0429 467.703,39.4759 468.65,38.9341 469.609,38.4175 470.582,37.9261 471.567,37.4598 472.566,37.0188 473.578,36.603 474.603,36.2124 475.642,35.847 476.693,35.5068 477.758,35.1918 478.835,34.902 479.926,34.6374 481.03,34.398 482.147,34.1838 483.278,33.9948 484.421,33.831 485.578,33.6924 486.747,33.579 487.93,33.4907 489.126,33.4277 490.335,33.3899 491.557,33.3773 492.748,33.3902 493.924,33.4289 495.087,33.4933 496.235,33.5834 497.369,33.6994 498.489,33.841 499.595,34.0085 500.688,34.2017 501.766,34.4207 502.83,34.6654 503.88,34.9359 504.915,35.2321 505.937,35.5541 506.945,35.9019 507.939,36.2754 508.918,36.6747 509.884,37.0998 510.836,37.5506 511.773,38.0272 512.697,38.5295 513.606,39.0576 514.502,39.6114 515.383,40.1911 516.25,40.7964 517.103,41.4276 517.943,42.0845 518.88,42.8536 519.79,43.6466 520.671,44.4636 521.524,45.3046 522.348,46.1695 523.144,47.0583 523.911,47.971 524.65,48.9077 525.361,49.8684 526.043,50.853 526.696,51.8615 527.322,52.894 527.918,53.9504 528.487,55.0307 529.027,56.135 529.538,57.2632 530.021,58.4154 530.476,59.5915 530.902,60.7916 531.3,62.0156 531.669,63.2635 532.01,64.5354 532.323,65.8312 570.977,56.5964 570.605,55.3148 570.224,54.0499 569.832,52.8017 569.43,51.5701 569.017,50.3553 568.595,49.1572 568.162,47.9758 567.719,46.811 567.266,45.663 566.803,44.5316 566.33,43.417 565.846,42.319 565.353,41.2377 564.849,40.1732 564.335,39.1253 563.811,38.0941 563.276,37.0796 562.732,36.0818 562.177,35.1007 561.612,34.1363 561.037,33.1886 560.451,32.2576 559.856,31.3433 559.25,30.4457 558.634,29.5647 558.008,28.7005 557.372,27.8529 556.726,27.0221 556.069,26.2079 555.402,25.4105 554.725,24.6297 554.038,23.8656 553.341,23.1182 552.633,22.3876 551.916,21.6736 551.188,20.9763 550.433,20.2712 549.67,19.5783 548.9,18.8973 548.121,18.2285 547.336,17.5716 546.542,16.9268 545.741,16.2941 544.933,15.6735 544.116,15.0648 543.292,14.4683 542.46,13.8838 541.621,13.3113 540.774,12.7509 539.919,12.2025 539.057,11.6662 538.187,11.142 537.309,10.6297 536.424,10.1296 535.531,9.64149 534.631,9.16545 533.722,8.70145 532.807,8.2495 531.883,7.80961 530.952,7.38177 530.013,6.96598 529.066,6.56224 528.112,6.17056 527.15,5.79092 526.181,5.42334 525.204,5.06781 524.219,4.72433 523.226,4.39291 522.226,4.07353 521.219,3.76621 520.203,3.47094 519.18,3.18772 518.149,2.91655 517.111,2.65744 516.065,2.41037 515.011,2.17536 513.95,1.9524 512.881,1.74149 511.804,1.54264 510.72,1.35584 509.628,1.18108 508.528,1.01838 507.421,0.867735 506.306,0.729138 505.183,0.602593 504.053,0.488101 502.915,0.38566 501.77,0.295271 500.616,0.216934 499.455,0.150648 498.287,0.0964149 497.111,0.0542334 495.927,0.0241037 494.735,0.00602593 493.536,0 492.327,0.00596592 491.124,0.0238637 489.929,0.0536933 488.74,0.0954548 487.559,0.149148 486.384,0.214773 485.217,0.29233 484.057,0.381819 482.903,0.48324 481.757,0.596592 480.617,0.721877 479.485,0.859093 478.359,1.00824 477.241,1.16932 476.129,1.34233 475.025,1.52728 473.927,1.72415 472.836,1.93296 471.753,2.1537 470.676,2.38637 469.607,2.63097 468.544,2.88751 467.489,3.15597 466.44,3.43637 465.399,3.7287 464.364,4.03296 463.336,4.34916 462.316,4.67728 461.302,5.01734 460.296,5.36933 459.296,5.73325 458.303,6.10911 457.318,6.49689 456.339,6.89661 455.368,7.30826 454.403,7.73184 453.445,8.16735 452.495,8.61479 451.551,9.07417 450.614,9.54548 449.685,10.0287 448.762,10.5239 447.846,11.031 446.938,11.55 446.036,12.081 445.141,12.6239 444.254,13.1787 443.373,13.7455 442.499,14.3242 441.633,14.9148 440.773,15.5174 439.92,16.1319 439.074,16.7583 438.236,17.3966 437.404,18.0469 436.579,18.7091 435.762,19.3833 434.951,20.0694 434.147,20.7674 433.35,21.4773 432.561,22.1992 431.778,22.933 431.002,23.6788 430.233,24.4364 429.471,25.206 428.717,25.9876 427.969,26.781 427.325,27.4769 426.69,28.18 426.064,28.8904 425.446,29.6082 424.836,30.3332 424.234,31.0655 423.641,31.8051 423.057,32.5521 422.481,33.3063 421.913,34.0678 421.354,34.8366 420.803,35.6127 420.26,36.3961 419.726,37.1869 419.2,37.9849 418.683,38.7902 418.174,39.6028 417.674,40.4227 417.182,41.2499 416.698,42.0844 416.223,42.9262 415.756,43.7753 415.298,44.6317 414.848,45.4954 414.406,46.3664 413.973,47.2447 413.548,48.1303 413.132,49.0231 412.724,49.9233 412.325,50.8308 411.933,51.7456 411.551,52.6677 411.176,53.5971 410.811,54.5337 410.453,55.4777 410.104,56.429 409.763,57.3876 409.431,58.3534 409.107,59.3266 408.792,60.3071 408.485,61.2948 408.186,62.2899 407.896,63.2923 407.614,64.3019 407.341,65.3189 407.076,66.3432 406.82,67.3747 406.572,68.4136 406.332,69.4597 406.101,70.5132 405.878,71.5739 405.663,72.642 405.457,73.7173 405.259,74.8 405.07,75.8899 404.889,76.9872 404.717,78.0917 404.553,79.2035 404.397,80.3227 404.25,81.4491 404.111,82.5828 403.981,83.7239 403.859,84.8722 403.745,86.0278 403.64,87.1908 403.544,88.361 403.455,89.5385 403.375,90.7233 403.304,91.9155 403.241,93.1149 403.186,94.3216 403.14,95.5356 403.102,96.7569 403.073,97.9855 403.052,99.2214 403.039,100.465 403.035,101.715 403.039,102.945 403.053,104.168 403.076,105.385 403.107,106.594 403.148,107.796 403.198,108.991 403.257,110.179 403.325,111.36 403.402,112.533 403.488,113.7 403.583,114.86 403.687,116.013 403.8,117.159 403.922,118.297 404.054,119.429 404.194,120.554 404.344,121.671 404.502,122.782 404.67,123.885 404.846,124.982 405.032,126.071 376.191,131.721 375.999,130.653 375.784,129.596 375.547,128.549 375.287,127.513 375.005,126.487 374.7,125.471 374.372,124.466 374.022,123.471 373.649,122.486 373.254,121.512 372.836,120.548 372.396,119.594 371.932,118.651 371.447,117.718 370.939,116.796 370.408,115.883 369.854,114.982 369.278,114.09 368.68,113.209 368.058,112.338 367.415,111.478 366.7,110.569 365.963,109.68 365.203,108.811 364.421,107.963 363.616,107.134 362.789,106.324 361.94,105.535 361.068,104.766 360.173,104.017 359.257,103.287 358.317,102.577 357.356,101.888 356.372,101.218 355.365,100.568 354.336,99.9382 353.285,99.3282 352.211,98.738 351.114,98.1678 349.996,97.6175 348.854,97.0871 347.691,96.5765 346.505,96.0859 345.296,95.6152 344.065,95.1644 342.812,94.7336 341.536,94.3226 340.238,93.9315 325.4,117.623 324.158,116.928 322.853,116.288 321.485,115.703 320.053,115.172 319.586,115.016 319.087,114.864 318.559,114.717 317.999,114.575 317.409,114.437 316.789,114.303 316.138,114.174 315.456,114.05 314.744,113.93 314.001,113.815 313.227,113.704 312.423,113.598 311.589,113.496 310.723,113.399 309.828,113.306 308.901,113.218 307.944,113.134 306.957,113.055 305.938,112.98 304.89,112.91 303.81,112.844 302.7,112.783 301.56,112.727 300.389,112.675 299.187,112.627 297.955,112.584 296.692,112.546 295.399,112.512 294.075,112.483 292.72,112.458 291.335,112.437 289.919,112.422 288.473,112.41 286.996,112.403 285.488,112.401 253.958,112.401 253.958,112.401 253.958,164.116 290.106,164.116 291.648,164.115 293.148,164.11 294.606,164.102 296.021,164.09 297.394,164.076 298.725,164.058 300.013,164.036 301.259,164.012 302.463,163.984 303.624,163.953 304.743,163.919 305.82,163.882 306.854,163.841 307.846,163.797 308.795,163.75 309.703,163.699 310.567,163.646 311.39,163.589 312.17,163.528 312.908,163.465 313.603,163.398 314.257,163.328 314.867,163.255 315.436,163.178 315.962,163.098 316.446,163.015 316.887,162.929 318.207,162.659 319.488,162.336 320.73,161.959 321.933,161.53 323.097,161.048 324.222,160.512 325.308,159.924 326.354,159.282 327.362,158.587 328.331,157.839 329.261,157.038 330.151,156.184 331.003,155.277 331.674,154.486 332.302,153.663 332.886,152.808 333.427,151.921 333.925,151.002 334.38,150.052 334.791,149.069 335.159,148.054 335.483,147.008 335.765,145.929 336.003,144.818 336.198,143.676 336.349,142.502 336.457,141.295 336.522,140.057 336.544,138.786 336.522,137.556 336.458,136.353 336.35,135.176 336.199,134.026 336.005,132.904 335.769,131.808 335.489,130.739 335.165,129.697 334.799,128.682 334.39,127.694 333.938,126.733 333.442,125.798 332.904,124.891 332.322,124.011 331.523,122.935 330.661,121.913 329.735,120.946 328.746,120.033 327.694,119.175 326.579,118.372 325.4,117.623 340.238,93.9315 322.839,73.4278 323.615,72.6914 324.415,71.8439 325.155,70.9602 325.836,70.0401 326.458,69.0836 327.021,68.0908 327.524,67.0616 327.969,65.9961 328.354,64.8943 328.679,63.7561 328.946,62.5815 329.153,61.3706 329.301,60.1234 329.39,58.8398 329.42,57.5199 329.394,56.2558 329.318,55.0267 329.19,53.8326 329.011,52.6736 328.78,51.5495 328.499,50.4605 328.167,49.4064 327.783,48.3873 327.348,47.4033 326.862,46.4542 326.325,45.5401 325.737,44.6611 325.097,43.817 324.407,43.008 323.684,42.2204 322.912,41.4787 322.091,40.7827 321.219,40.1325 320.297,39.5281 319.326,38.9694 318.305,38.4565 317.234,37.9894 316.114,37.568 314.943,37.1924 313.723,36.8626 312.453,36.5786 311.133,36.3403 309.763,36.1478 309.391,36.1084 308.979,36.0703 308.528,36.0333 308.036,35.9976 307.504,35.9631 306.932,35.9297 306.321,35.8976 305.669,35.8667 304.978,35.8371 304.246,35.8086 303.474,35.7813 302.663,35.7553 301.811,35.7305 300.92,35.7068 299.988,35.6844 299.017,35.6632 298.005,35.6432 296.954,35.6245 295.863,35.6069 294.731,35.5905 293.56,35.5754 292.349,35.5615 291.097,35.5487 289.806,35.5372 288.475,35.5269 287.104,35.5178 285.692,35.51 284.241,35.5033 282.75,35.4979 281.219,35.4936 279.648,35.4906 278.037,35.4888 276.386,35.4882 253.958,35.4882 253.958,35.4882 253.958,80.2112 279.552,80.2112 281.16,80.2103 282.724,80.2078 284.244,80.2036 285.72,80.1977 287.152,80.1901 288.54,80.1809 289.883,80.1699 291.183,80.1573 292.438,80.143 293.65,80.127 294.817,80.1094 295.94,80.09 297.019,80.069 298.054,80.0463 299.045,80.0219 299.992,79.9958 300.895,79.968 301.754,79.9386 302.568,79.9074 303.339,79.8746 304.065,79.8401 304.748,79.8039 305.386,79.7661 305.98,79.7265 306.53,79.6853 307.036,79.6424 307.498,79.5978 307.916,79.5515 309.233,79.3733 310.512,79.1552 311.752,78.8972 312.954,78.5993 314.116,78.2616 315.24,77.884 316.326,77.4665 317.372,77.0092 318.38,76.512 319.35,75.9749 320.28,75.3979 321.172,74.7811 322.025,74.1244 322.839,73.4278 340.238,93.9315 341.542,93.3186 342.818,92.6744 344.064,91.9987 345.281,91.2915 346.469,90.5529 347.627,89.783 348.756,88.9815 349.856,88.1487 350.927,87.2844 351.969,86.3887 352.981,85.4615 353.964,84.503 354.918,83.513 355.842,82.4916 356.738,81.4387 357.604,80.3544 358.441,79.2387 359.248,78.0916 360.027,76.913 360.606,76.0018 361.162,75.0834 361.693,74.1578 362.202,73.225 362.686,72.285 363.147,71.3379 363.585,70.3836 363.999,69.4221 364.389,68.4535 364.755,67.4776 365.098,66.4946 365.417,65.5045 365.712,64.5071 365.984,63.5026 366.233,62.4908 366.457,61.4719 366.658,60.4459 366.835,59.4126 366.989,58.3722 367.119,57.3246 367.226,56.2698 367.308,55.2079 367.367,54.1387 367.403,53.0624 367.415,51.9789 367.402,50.8448 367.366,49.7209 367.304,48.6075 367.218,47.5044 367.108,46.4116 366.973,45.3292 366.814,44.2572 366.63,43.1955 366.421,42.1442 366.188,41.1032 365.93,40.0726 365.648,39.0524 365.342,38.0425 365.011,37.0429 364.655,36.0538 364.275,35.0749 363.87,34.1065 363.441,33.1484 362.987,32.2006 362.508,31.2633 362.005,30.3362 361.478,29.4196 360.673,28.0833 359.841,26.7834 358.982,25.5198 358.096,24.2926 357.183,23.1018 356.243,21.9473 355.276,20.8291 354.282,19.7473 353.262,18.7019 352.214,17.6928 351.139,16.72 350.037,15.7837 348.909,14.8836 347.753,14.02 346.57,13.1926 345.68,12.5963 344.777,12.0211 343.862,11.467 342.934,10.934 341.994,10.4222 341.041,9.93141 340.076,9.46175 339.098,9.0132 338.108,8.58576 337.105,8.17943 336.089,7.7942 335.061,7.43009 334.02,7.08708 332.967,6.76518 331.902,6.46439 330.824,6.1847 329.733,5.92613 328.63,5.68866 327.514,5.4723 326.386,5.27705 325.716,5.16236 325.026,5.05109 324.315,4.94324 323.585,4.83882 322.834,4.73782 322.062,4.64024 321.27,4.54609 320.458,4.45536 319.626,4.36806 318.774,4.28418 317.901,4.20372 317.007,4.12669 316.094,4.05308 315.16,3.9829 314.206,3.91613 313.231,3.85279 312.237,3.79288 311.221,3.73639 310.186,3.68332 309.13,3.63368 308.054,3.58746 306.958,3.54466 305.841,3.50529 304.704,3.46934 303.547,3.43682 302.369,3.40771 301.171,3.38204 299.953,3.35978 298.714,3.34095 297.455,3.32555 296.176,3.31356 294.877,3.305 293.557,3.29987 292.217,3.29816 214.908,3.29816 214.908,3.29816 214.908,196.702 194.064,196.702 194.064,196.702 116.623,3.29816 75.3299,3.29816 0,-20 0,-20 " />
</g>
</svg>
