<?xml version="1.0" encoding="UTF-8" standalone="no"?>
<!-- Created with Inkscape (http://www.inkscape.org/) -->

<svg
   width="210mm"
   height="297mm"
   viewBox="0 0 210 297"
   version="1.1"
   id="svg1"
   inkscape:version="1.4.2 (f4327f4, 2025-05-13)"
   sodipodi:docname="ABC1.svg"
   xmlns:inkscape="http://www.inkscape.org/namespaces/inkscape"
   xmlns:sodipodi="http://sodipodi.sourceforge.net/DTD/sodipodi-0.dtd"
   xmlns="http://www.w3.org/2000/svg"
   xmlns:svg="http://www.w3.org/2000/svg">
  <sodipodi:namedview
     id="namedview1"
     pagecolor="#505050"
     bordercolor="#eeeeee"
     borderopacity="1"
     inkscape:showpageshadow="0"
     inkscape:pageopacity="0"
     inkscape:pagecheckerboard="0"
     inkscape:deskcolor="#505050"
     inkscape:document-units="mm"
     inkscape:zoom="0.11952887"
     inkscape:cx="2024.6154"
     inkscape:cy="1158.7159"
     inkscape:window-width="1710"
     inkscape:window-height="1003"
     inkscape:window-x="-6"
     inkscape:window-y="-6"
     inkscape:window-maximized="1"
     inkscape:current-layer="layer1" />
  <defs
     id="defs1" />
  <g
     inkscape:label="Layer 1"
     inkscape:groupmode="layer"
     id="layer1">
    <path
       style="font-weight:bold;font-size:236.287px;font-family:Arial;-inkscape-font-specification:'Arial Bold';fill:#ffffff;stroke:#ff0000;stroke-width:0.196906"
       d="M 169.81436,172.12186 H 132.66377 L 117.89583,133.70214 H 50.286366 L 36.32605,172.12186 H 0.098453 L 65.9773,2.9828207 h 36.11222 z M 106.93525,105.20464 83.6296,42.440904 60.785447,105.20464 Z M 188.04353,2.9828207 H 255.653 q 20.07516,0 29.88199,1.7306177 9.92221,1.6152432 17.6523,6.9224706 7.84547,5.307228 13.03732,14.191065 5.19186,8.768463 5.19186,19.729042 0,11.883575 -6.46098,21.805783 -6.34559,9.922208 -17.30617,14.883312 15.46018,4.499606 23.76715,15.34481 8.30696,10.845209 8.30696,25.497769 0,11.53745 -5.4226,22.49803 -5.30723,10.8452 -14.65256,17.42155 -9.22996,6.46097 -22.84416,7.96084 -8.53771,0.923 -41.1887,1.15375 h -57.57188 z m 34.15086,28.1513813 v 39.11196 h 22.38265 q 19.95979,0 24.80552,-0.576873 8.76847,-1.03837 13.72957,-5.999475 5.07648,-5.076478 5.07648,-13.268068 0,-7.845467 -4.38423,-12.691197 -4.26886,-4.961104 -12.80657,-5.999475 -5.07648,-0.576872 -29.18976,-0.576872 z m 0,67.263341 V 143.62435 H 253.807 q 18.45993,0 23.42103,-1.03837 7.61472,-1.38449 12.34507,-6.69172 4.84573,-5.4226 4.84573,-14.42181 0,-7.61472 -3.69198,-12.92195 -3.69199,-5.30723 -10.72983,-7.73009 -6.92247,-2.422867 -30.22812,-2.422867 z m 244.59396,11.537447 33.11249,10.49908 q -7.61472,27.68989 -25.3824,41.18871 -17.6523,13.38344 -44.88068,13.38344 -33.68936,0 -55.37977,-22.95953 -21.69041,-23.0749 -21.69041,-62.994483 0,-42.227071 21.80579,-65.532723 21.80578,-23.42102615 57.34113,-23.42102615 31.03574,0 50.41866,18.34454715 11.53745,10.845205 17.30618,31.151119 L 465.6346,57.67034 q -2.99973,-13.152695 -12.57582,-20.767413 -9.46071,-7.614717 -23.0749,-7.614717 -18.80605,0 -30.57425,13.498818 -11.65282,13.498818 -11.65282,43.72694 0,32.074112 11.53745,45.688312 11.53745,13.61419 29.99737,13.61419 13.6142,0 23.42103,-8.65309 9.80683,-8.65309 14.07569,-27.22839 z"
       id="text1"
       aria-label="ABC" />
  </g>
</svg>
