<?xml version="1.0" encoding="UTF-8" standalone="no"?>
<!-- Created with Inkscape (http://www.inkscape.org/) -->

<svg
   width="1299mm"
   height="600mm"
   viewBox="0 0 1299 600"
   version="1.1"
   id="svg1"
   inkscape:version="1.4.4 (dcaf3e7, 2026-05-05)"
   sodipodi:docname="ABC1.svg"
   xmlns:inkscape="http://www.inkscape.org/namespaces/inkscape"
   xmlns:sodipodi="http://sodipodi.sourceforge.net/DTD/sodipodi-0.dtd"
   xmlns="http://www.w3.org/2000/svg"
   xmlns:svg="http://www.w3.org/2000/svg">
  <sodipodi:namedview
     id="namedview1"
     pagecolor="#ffffff"
     bordercolor="#000000"
     borderopacity="0.25"
     inkscape:showpageshadow="2"
     inkscape:pageopacity="0.0"
     inkscape:pagecheckerboard="0"
     inkscape:deskcolor="#d1d1d1"
     inkscape:document-units="mm"
     inkscape:zoom="0.24832527"
     inkscape:cx="2291.3496"
     inkscape:cy="1399.3743"
     inkscape:window-width="2196"
     inkscape:window-height="1373"
     inkscape:window-x="-9"
     inkscape:window-y="-9"
     inkscape:window-maximized="1"
     inkscape:current-layer="layer1" />
  <defs
     id="defs1" />
  <g
     inkscape:label="Layer 1"
     inkscape:groupmode="layer"
     id="layer1">
    <path
       style="font-weight:bold;font-size:270.185px;font-family:Arial;-inkscape-font-specification:'Arial Bold';stroke-width:0.476574"
       d="M 194.06354,196.70163 H 151.58328 L 134.69672,152.77018 H 57.387927 L 41.424848,196.70163 H 0 L 75.329899,3.2977203 H 116.62282 Z M 122.16372,120.18439 95.514618,48.416504 69.393217,120.18439 Z M 214.9079,3.2977203 h 77.30879 q 22.95517,0 34.1689,1.978894 11.34566,1.8469677 20.18472,7.9155757 8.97099,6.068609 14.90767,16.226931 5.93668,10.026397 5.93668,22.559392 0,13.588406 -7.38787,24.934065 -7.25594,11.345659 -19.78894,17.018489 17.67812,5.145124 27.17681,17.546193 9.4987,12.40107 9.4987,29.15571 0,13.19262 -6.20054,25.72562 -6.06861,12.40107 -16.75464,19.92086 -10.5541,7.38788 -26.1214,9.10292 -9.76254,1.05541 -47.09767,1.31926 H 214.9079 Z M 253.95807,35.48773 v 44.723005 h 25.5937 q 22.82324,0 28.36415,-0.659632 10.02639,-1.187336 15.69922,-6.860166 5.80476,-5.804755 5.80476,-15.17152 0,-8.970987 -5.0132,-14.51189 -4.88127,-5.67283 -14.64382,-6.860166 -5.80475,-0.659631 -33.37734,-0.659631 z m 0,76.91301 v 51.7151 h 36.1478 q 21.1082,0 26.78103,-1.18734 8.70714,-1.58311 14.11611,-7.65172 5.54091,-6.20053 5.54091,-16.49078 0,-8.70714 -4.22164,-14.77574 -4.22164,-6.06861 -12.26915,-8.83906 -7.91557,-2.77046 -34.56468,-2.77046 z m 279.6837,13.19263 37.86284,12.00529 q -8.70714,31.66231 -29.02378,47.09768 -20.18472,15.30345 -51.31932,15.30345 -38.52247,0 -63.32461,-26.25333 -24.80214,-26.38525 -24.80214,-72.03174 0,-48.285018 24.93407,-74.934124 24.93406,-26.78103245501 65.56735,-26.78103245501 35.48817,0 57.65178,20.97627645501 13.19263,12.401069 19.78894,35.620093 l -38.65439,9.234838 q -3.43009,-15.039594 -14.37997,-23.746728 -10.81795,-8.707134 -26.38525,-8.707134 -21.50398,0 -34.96046,15.435374 -13.32456,15.435373 -13.32456,50.000056 0,36.675501 13.19263,52.242801 13.19263,15.5673 34.30083,15.5673 15.5673,0 26.78103,-9.89447 11.21374,-9.89447 16.09501,-31.1346 z"
       id="text1"
       aria-label="ABC" />
  </g>
</svg>
